<svg width="48" height="48" viewBox="0 0 48 48" fill="none" xmlns="http://www.w3.org/2000/svg">
<g clip-path="url(#clip0_73_2)">
<path d="M23.9998 48.0002C37.2547 48.0002 47.9998 37.2549 47.9998 24.0002C47.9998 18.6263 46.2337 13.665 43.2501 9.66504C43.3821 10.3544 43.4935 11.0418 43.5846 11.7258C43.59 11.766 43.5953 11.8061 43.6004 11.8462C45.5724 27.0348 37.5724 40.6049 23.9998 39.9071C18.45 39.9071 13.564 37.065 10.7179 32.7569H1.64746C5.14627 41.681 13.835 48.0002 23.9998 48.0002Z" fill="#177981"/>
<path d="M43.5847 11.7253C43.4936 11.0413 43.3822 10.3539 43.2502 9.66456C42.0319 8.10779 41.0933 7.77241 41.0694 7.78346C41.0455 7.79452 27.7218 23.4807 27.7218 23.4807L18.7378 15.5689V21.5348L28.1069 29.8375L43.6005 11.8457C43.5954 11.8056 43.5901 11.7655 43.5847 11.7253Z" fill="#177981"/>
<path d="M14.2461 36.4545H18.738V21.5356V15.5697L14.2461 11.6113V36.4545Z" fill="#FDBB2D"/>
<path d="M26.0103 21.9736L27.7222 23.4815C27.7222 23.4815 41.0459 7.79524 41.0697 7.78418H38.0837L26.0103 21.9736Z" fill="#FDBB2D"/>
<path fill-rule="evenodd" clip-rule="evenodd" d="M24 0C10.7452 0 0 10.7451 0 24C0 34.1647 6.31912 42.8535 15.2432 46.3523V37.2818C10.9352 34.4358 8.09305 29.5497 8.09305 24C7.39522 10.4274 20.9653 2.42733 36.154 4.39935C36.1941 4.40452 36.2341 4.4098 36.2743 4.4152C36.9584 4.50626 37.6458 4.61765 38.3351 4.7497C34.3352 1.76612 29.3738 0 24 0Z" fill="#FDBB2D"/>
</g>
<defs>
<clipPath id="clip0_73_2">
<rect width="48" height="48" fill="white"/>
</clipPath>
</defs>
</svg>
